<svg xmlns="http://www.w3.org/2000/svg" viewBox="0 0 600 400" role="img" aria-hidden="true">
  <defs>
    <linearGradient id="bg" x1="0" x2="0" y1="0" y2="1">
      <stop offset="0%" stop-color="#03192e"/>
      <stop offset="100%" stop-color="#1a2e44"/>
    </linearGradient>
    <radialGradient id="spot" cx="50%" cy="35%" r="60%">
      <stop offset="0%" stop-color="#b4c8e4" stop-opacity="0.55"/>
      <stop offset="100%" stop-color="#03192e" stop-opacity="0"/>
    </radialGradient>
  </defs>
  <rect width="600" height="400" fill="url(#bg)"/>
  <rect width="600" height="400" fill="url(#spot)"/>
  <g transform="translate(300 260)" fill="#d8c4a2" opacity="0.88">
    <!-- Stylized Lincoln silhouette -->
    <path d="M-14 -140 Q -36 -138 -44 -108 Q -48 -92 -44 -78 Q -52 -72 -54 -60 Q -56 -48 -48 -44 Q -52 -32 -46 -26 Q -40 -20 -30 -22 L -28 -6 Q -56 4 -72 28 L -72 60 L -90 60 L -90 100 L 90 100 L 90 60 L 72 60 L 72 28 Q 56 4 28 -6 L 30 -22 Q 40 -20 46 -26 Q 52 -32 48 -44 Q 56 -48 54 -60 Q 52 -72 44 -78 Q 48 -92 44 -108 Q 36 -138 14 -140 Q 0 -148 -14 -140 Z"/>
    <path d="M-40 -146 L -40 -110 L 40 -110 L 40 -146 Z" fill="#5a3a10"/>
    <path d="M-50 -110 L 50 -110 L 50 -100 L -50 -100 Z" fill="#4a2a08"/>
  </g>
</svg>
